<svg width="152" height="52" viewBox="0 0 152 52" fill="none" xmlns="http://www.w3.org/2000/svg">
<path opacity="0.5" d="M52.0157 0.35129L39.286 47.8829C39.2212 48.0986 38.9623 48.1634 38.8113 48.0123L30.2888 39.4899L36.6753 15.6701C36.74 15.4544 36.5458 15.2602 36.3301 15.3249L12.5103 21.7114L4.03104 13.2321C3.88001 13.081 3.94474 12.8221 4.1605 12.7574L51.6705 0.00607603C51.8863 -0.0370757 52.0804 0.157107 52.0157 0.35129Z" fill="#00B37E"/>
<path opacity="0.5" d="M30.2885 39.49L27.009 51.7882C26.9442 52.004 26.6853 52.0687 26.5343 51.9177L0.0823113 25.4873C-0.0687196 25.3362 -0.00399244 25.0773 0.211766 25.0126L12.51 21.7115L30.2885 39.49Z" fill="#00B37E"/>
<path d="M36.6752 15.67L30.2887 39.4897L12.5103 21.7112L36.33 15.3247C36.5457 15.26 36.7399 15.4542 36.6752 15.67Z" fill="#00B37E"/>
<path d="M67.6222 45.6314C67.6222 45.4246 67.5762 45.2334 67.4841 45.0576C67.3971 44.8767 67.2155 44.7139 66.9392 44.5691C66.668 44.4192 66.2587 44.29 65.7112 44.1814C65.2507 44.0832 64.8337 43.9669 64.4602 43.8325C64.0918 43.6981 63.7772 43.5353 63.5162 43.344C63.2604 43.1527 63.0634 42.9279 62.9253 42.6694C62.7871 42.411 62.718 42.1086 62.718 41.7622C62.718 41.4314 62.7897 41.1187 62.9329 40.824C63.0813 40.5294 63.2885 40.2683 63.5546 40.0409C63.8258 39.8134 64.1507 39.6351 64.5293 39.5059C64.9079 39.3766 65.33 39.312 65.7956 39.312C66.4608 39.312 67.0287 39.4309 67.4994 39.6687C67.9701 39.9065 68.3309 40.2244 68.5816 40.6224C68.8323 41.0153 68.9576 41.4521 68.9576 41.9328H67.5378C67.5378 41.7002 67.4687 41.4753 67.3306 41.2582C67.1975 41.0359 67.0006 40.8524 66.7396 40.7077C66.4838 40.563 66.1691 40.4906 65.7956 40.4906C65.4017 40.4906 65.0819 40.5526 64.8363 40.6767C64.5958 40.7956 64.4193 40.9481 64.3067 41.1342C64.1993 41.3203 64.1456 41.5167 64.1456 41.7235C64.1456 41.8785 64.1711 42.0181 64.2223 42.1422C64.2786 42.2611 64.3758 42.3722 64.5139 42.4756C64.6521 42.5738 64.8465 42.6668 65.0972 42.7547C65.3479 42.8426 65.6677 42.9305 66.0566 43.0183C66.7371 43.1734 67.2973 43.3595 67.7373 43.5766C68.1774 43.7937 68.5048 44.0599 68.7197 44.3753C68.9346 44.6906 69.042 45.0731 69.042 45.5228C69.042 45.8898 68.9653 46.2258 68.8118 46.5308C68.6634 46.8358 68.446 47.0994 68.1595 47.3217C67.878 47.5388 67.5404 47.7094 67.1464 47.8335C66.7575 47.9524 66.3201 48.0118 65.834 48.0118C65.1023 48.0118 64.4832 47.88 63.9767 47.6164C63.4702 47.3527 63.0864 47.0116 62.8255 46.5929C62.5646 46.1742 62.4341 45.7322 62.4341 45.267H63.8616C63.8821 45.6598 63.9946 45.9726 64.1993 46.2052C64.4039 46.4326 64.6546 46.5954 64.9514 46.6937C65.2482 46.7867 65.5424 46.8332 65.834 46.8332C66.2229 46.8332 66.5478 46.7815 66.8087 46.6782C67.0748 46.5748 67.2769 46.4326 67.415 46.2517C67.5531 46.0708 67.6222 45.864 67.6222 45.6314Z" fill="white"/>
<path d="M72.3268 35.9468V47.8567H70.907V35.9468H72.3268ZM71.9892 43.344L71.3982 43.3207C71.4033 42.747 71.4877 42.2171 71.6515 41.7312C71.8152 41.2401 72.0454 40.8137 72.3422 40.4518C72.639 40.09 72.992 39.8108 73.4013 39.6144C73.8158 39.4128 74.2737 39.312 74.7751 39.312C75.1844 39.312 75.5528 39.3689 75.8803 39.4826C76.2077 39.5911 76.4866 39.7669 76.7168 40.0099C76.9522 40.2528 77.1312 40.5681 77.254 40.9558C77.3768 41.3383 77.4382 41.8062 77.4382 42.3593V47.8567H76.0107V42.3438C76.0107 41.9044 75.9468 41.5529 75.8189 41.2892C75.6909 41.0204 75.5042 40.8266 75.2586 40.7077C75.013 40.5836 74.7111 40.5216 74.353 40.5216C73.9999 40.5216 73.6776 40.5966 73.386 40.7465C73.0994 40.8964 72.8513 41.1031 72.6415 41.3668C72.4369 41.6304 72.2757 41.9328 72.158 42.274C72.0454 42.61 71.9892 42.9667 71.9892 43.344Z" fill="white"/>
<path d="M79.1881 43.755V43.5766C79.1881 42.9718 79.2751 42.411 79.449 41.894C79.623 41.3719 79.8737 40.9196 80.2011 40.5371C80.5286 40.1494 80.9251 39.8496 81.3907 39.6377C81.8563 39.4206 82.3782 39.312 82.9564 39.312C83.5397 39.312 84.0641 39.4206 84.5297 39.6377C85.0004 39.8496 85.3995 40.1494 85.727 40.5371C86.0595 40.9196 86.3128 41.3719 86.4868 41.894C86.6607 42.411 86.7477 42.9718 86.7477 43.5766V43.755C86.7477 44.3598 86.6607 44.9206 86.4868 45.4375C86.3128 45.9545 86.0595 46.4068 85.727 46.7945C85.3995 47.177 85.003 47.4768 84.5374 47.6939C84.0769 47.9058 83.555 48.0118 82.9717 48.0118C82.3885 48.0118 81.864 47.9058 81.3984 47.6939C80.9328 47.4768 80.5337 47.177 80.2011 46.7945C79.8737 46.4068 79.623 45.9545 79.449 45.4375C79.2751 44.9206 79.1881 44.3598 79.1881 43.755ZM80.6079 43.5766V43.755C80.6079 44.1737 80.6565 44.5691 80.7537 44.9413C80.8509 45.3083 80.9968 45.634 81.1912 45.9183C81.3907 46.2026 81.6389 46.4274 81.9356 46.5929C82.2324 46.7531 82.5778 46.8332 82.9717 46.8332C83.3606 46.8332 83.7008 46.7531 83.9925 46.5929C84.2892 46.4274 84.5348 46.2026 84.7293 45.9183C84.9237 45.634 85.0695 45.3083 85.1667 44.9413C85.269 44.5691 85.3202 44.1737 85.3202 43.755V43.5766C85.3202 43.1631 85.269 42.7728 85.1667 42.4058C85.0695 42.0336 84.9211 41.7054 84.7216 41.4211C84.5272 41.1316 84.2816 40.9041 83.9848 40.7387C83.6932 40.5733 83.3504 40.4906 82.9564 40.4906C82.5675 40.4906 82.2247 40.5733 81.928 40.7387C81.6363 40.9041 81.3907 41.1316 81.1912 41.4211C80.9968 41.7054 80.8509 42.0336 80.7537 42.4058C80.6565 42.7728 80.6079 43.1631 80.6079 43.5766Z" fill="white"/>
<path d="M89.9481 41.0799V51.0823H88.5206V39.4671H89.8253L89.9481 41.0799ZM95.543 43.5921V43.755C95.543 44.3649 95.4714 44.931 95.3281 45.453C95.1848 45.97 94.9751 46.4197 94.6988 46.8022C94.4276 47.1847 94.0925 47.482 93.6934 47.6939C93.2943 47.9058 92.8364 48.0118 92.3196 48.0118C91.7926 48.0118 91.327 47.9239 90.9228 47.7482C90.5186 47.5724 90.1758 47.3166 89.8944 46.9806C89.613 46.6446 89.3878 46.2414 89.219 45.771C89.0553 45.3006 88.9427 44.7707 88.8813 44.1814V43.313C88.9427 42.6927 89.0578 42.137 89.2267 41.6459C89.3955 41.1548 89.6181 40.7361 89.8944 40.3898C90.1758 40.0383 90.516 39.7721 90.9151 39.5911C91.3142 39.4051 91.7747 39.312 92.2966 39.312C92.8185 39.312 93.2815 39.4154 93.6857 39.6222C94.0899 39.8238 94.4302 40.1132 94.7064 40.4906C94.9827 40.8679 95.19 41.3203 95.3281 41.8475C95.4714 42.3696 95.543 42.9511 95.543 43.5921ZM94.1155 43.755V43.5921C94.1155 43.1734 94.072 42.7806 93.985 42.4135C93.898 42.0414 93.7624 41.7157 93.5783 41.4366C93.3992 41.1523 93.1689 40.93 92.8875 40.7697C92.6061 40.6043 92.271 40.5216 91.8821 40.5216C91.524 40.5216 91.2119 40.5836 90.9458 40.7077C90.6849 40.8318 90.4623 40.9998 90.2781 41.2117C90.0939 41.4185 89.943 41.6563 89.8253 41.9251C89.7127 42.1887 89.6283 42.4627 89.572 42.747V44.7552C89.6744 45.117 89.8176 45.4582 90.0018 45.7787C90.186 46.094 90.4316 46.3499 90.7386 46.5463C91.0456 46.7376 91.4319 46.8332 91.8975 46.8332C92.2812 46.8332 92.6112 46.7531 92.8875 46.5929C93.1689 46.4274 93.3992 46.2026 93.5783 45.9183C93.7624 45.634 93.898 45.3083 93.985 44.9413C94.072 44.5691 94.1155 44.1737 94.1155 43.755Z" fill="white"/>
<path d="M58.6211 7.9375H61.5977L65.9805 20.4648L70.3633 7.9375H73.3398L67.1758 25H64.7852L58.6211 7.9375ZM57.0156 7.9375H59.9805L60.5195 20.1484V25H57.0156V7.9375ZM71.9805 7.9375H74.957V25H71.4414V20.1484L71.9805 7.9375ZM81.3906 12.3203V25H78.0039V12.3203H81.3906ZM77.793 9.01562C77.793 8.52344 77.9648 8.11719 78.3086 7.79688C78.6523 7.47656 79.1133 7.31641 79.6914 7.31641C80.2617 7.31641 80.7188 7.47656 81.0625 7.79688C81.4141 8.11719 81.5898 8.52344 81.5898 9.01562C81.5898 9.50781 81.4141 9.91406 81.0625 10.2344C80.7188 10.5547 80.2617 10.7148 79.6914 10.7148C79.1133 10.7148 78.6523 10.5547 78.3086 10.2344C77.9648 9.91406 77.793 9.50781 77.793 9.01562ZM94.2695 22.3633V25H84.6367V22.3633H94.2695ZM94.082 14.2656L85.9961 25H83.7344V22.9961L91.7852 12.3203H94.082V14.2656ZM92.8867 12.3203V14.9688H83.9219V12.3203H92.8867ZM99.9531 12.3203V25H96.5664V12.3203H99.9531ZM96.3555 9.01562C96.3555 8.52344 96.5273 8.11719 96.8711 7.79688C97.2148 7.47656 97.6758 7.31641 98.2539 7.31641C98.8242 7.31641 99.2812 7.47656 99.625 7.79688C99.9766 8.11719 100.152 8.52344 100.152 9.01562C100.152 9.50781 99.9766 9.91406 99.625 10.2344C99.2812 10.5547 98.8242 10.7148 98.2539 10.7148C97.6758 10.7148 97.2148 10.5547 96.8711 10.2344C96.5273 9.91406 96.3555 9.50781 96.3555 9.01562ZM109.586 22.1406V16.4922C109.586 16.0859 109.52 15.7383 109.387 15.4492C109.254 15.1523 109.047 14.9219 108.766 14.7578C108.492 14.5938 108.137 14.5117 107.699 14.5117C107.324 14.5117 107 14.5781 106.727 14.7109C106.453 14.8359 106.242 15.0195 106.094 15.2617C105.945 15.4961 105.871 15.7734 105.871 16.0938H102.496C102.496 15.5547 102.621 15.043 102.871 14.5586C103.121 14.0742 103.484 13.6484 103.961 13.2812C104.438 12.9062 105.004 12.6133 105.66 12.4023C106.324 12.1914 107.066 12.0859 107.887 12.0859C108.871 12.0859 109.746 12.25 110.512 12.5781C111.277 12.9062 111.879 13.3984 112.316 14.0547C112.762 14.7109 112.984 15.5312 112.984 16.5156V21.9414C112.984 22.6367 113.027 23.207 113.113 23.6523C113.199 24.0898 113.324 24.4727 113.488 24.8008V25H110.078C109.914 24.6562 109.789 24.2266 109.703 23.7109C109.625 23.1875 109.586 22.6641 109.586 22.1406ZM110.031 17.2773L110.055 19.1875H108.168C107.723 19.1875 107.336 19.2383 107.008 19.3398C106.68 19.4414 106.41 19.5859 106.199 19.7734C105.988 19.9531 105.832 20.1641 105.73 20.4062C105.637 20.6484 105.59 20.9141 105.59 21.2031C105.59 21.4922 105.656 21.7539 105.789 21.9883C105.922 22.2148 106.113 22.3945 106.363 22.5273C106.613 22.6523 106.906 22.7148 107.242 22.7148C107.75 22.7148 108.191 22.6133 108.566 22.4102C108.941 22.207 109.23 21.957 109.434 21.6602C109.645 21.3633 109.754 21.082 109.762 20.8164L110.652 22.2461C110.527 22.5664 110.355 22.8984 110.137 23.2422C109.926 23.5859 109.656 23.9102 109.328 24.2148C109 24.5117 108.605 24.7578 108.145 24.9531C107.684 25.1406 107.137 25.2344 106.504 25.2344C105.699 25.2344 104.969 25.0742 104.312 24.7539C103.664 24.4258 103.148 23.9766 102.766 23.4062C102.391 22.8281 102.203 22.1719 102.203 21.4375C102.203 20.7734 102.328 20.1836 102.578 19.668C102.828 19.1523 103.195 18.7188 103.68 18.3672C104.172 18.0078 104.785 17.7383 105.52 17.5586C106.254 17.3711 107.105 17.2773 108.074 17.2773H110.031ZM118.961 15.0859V25H115.586V12.3203H118.762L118.961 15.0859ZM122.781 12.2383L122.723 15.3672C122.559 15.3438 122.359 15.3242 122.125 15.3086C121.898 15.2852 121.691 15.2734 121.504 15.2734C121.027 15.2734 120.613 15.3359 120.262 15.4609C119.918 15.5781 119.629 15.7539 119.395 15.9883C119.168 16.2227 118.996 16.5078 118.879 16.8438C118.77 17.1797 118.707 17.5625 118.691 17.9922L118.012 17.7812C118.012 16.9609 118.094 16.207 118.258 15.5195C118.422 14.8242 118.66 14.2188 118.973 13.7031C119.293 13.1875 119.684 12.7891 120.145 12.5078C120.605 12.2266 121.133 12.0859 121.727 12.0859C121.914 12.0859 122.105 12.1016 122.301 12.1328C122.496 12.1562 122.656 12.1914 122.781 12.2383ZM130.82 22.1406V16.4922C130.82 16.0859 130.754 15.7383 130.621 15.4492C130.488 15.1523 130.281 14.9219 130 14.7578C129.727 14.5938 129.371 14.5117 128.934 14.5117C128.559 14.5117 128.234 14.5781 127.961 14.7109C127.688 14.8359 127.477 15.0195 127.328 15.2617C127.18 15.4961 127.105 15.7734 127.105 16.0938H123.73C123.73 15.5547 123.855 15.043 124.105 14.5586C124.355 14.0742 124.719 13.6484 125.195 13.2812C125.672 12.9062 126.238 12.6133 126.895 12.4023C127.559 12.1914 128.301 12.0859 129.121 12.0859C130.105 12.0859 130.98 12.25 131.746 12.5781C132.512 12.9062 133.113 13.3984 133.551 14.0547C133.996 14.7109 134.219 15.5312 134.219 16.5156V21.9414C134.219 22.6367 134.262 23.207 134.348 23.6523C134.434 24.0898 134.559 24.4727 134.723 24.8008V25H131.312C131.148 24.6562 131.023 24.2266 130.938 23.7109C130.859 23.1875 130.82 22.6641 130.82 22.1406ZM131.266 17.2773L131.289 19.1875H129.402C128.957 19.1875 128.57 19.2383 128.242 19.3398C127.914 19.4414 127.645 19.5859 127.434 19.7734C127.223 19.9531 127.066 20.1641 126.965 20.4062C126.871 20.6484 126.824 20.9141 126.824 21.2031C126.824 21.4922 126.891 21.7539 127.023 21.9883C127.156 22.2148 127.348 22.3945 127.598 22.5273C127.848 22.6523 128.141 22.7148 128.477 22.7148C128.984 22.7148 129.426 22.6133 129.801 22.4102C130.176 22.207 130.465 21.957 130.668 21.6602C130.879 21.3633 130.988 21.082 130.996 20.8164L131.887 22.2461C131.762 22.5664 131.59 22.8984 131.371 23.2422C131.16 23.5859 130.891 23.9102 130.562 24.2148C130.234 24.5117 129.84 24.7578 129.379 24.9531C128.918 25.1406 128.371 25.2344 127.738 25.2344C126.934 25.2344 126.203 25.0742 125.547 24.7539C124.898 24.4258 124.383 23.9766 124 23.4062C123.625 22.8281 123.438 22.1719 123.438 21.4375C123.438 20.7734 123.562 20.1836 123.812 19.668C124.062 19.1523 124.43 18.7188 124.914 18.3672C125.406 18.0078 126.02 17.7383 126.754 17.5586C127.488 17.3711 128.34 17.2773 129.309 17.2773H131.266Z" fill="white"/>
</svg>
